<svg width="23" height="25" viewBox="0 0 23 25" fill="none" xmlns="http://www.w3.org/2000/svg">
<path fill-rule="evenodd" clip-rule="evenodd" d="M12.3113 0.332041C13.1467 0.332041 13.9587 0.675041 14.5408 1.27237C15.1218 1.87204 15.4427 2.69454 15.4182 3.52754C15.4205 3.71654 15.4823 3.93354 15.5943 4.12254C15.6837 4.27571 15.8023 4.40978 15.9435 4.51707C16.0847 4.62437 16.2457 4.70279 16.4172 4.74787C16.5887 4.79294 16.7674 4.80377 16.9431 4.77975C17.1188 4.75573 17.288 4.69733 17.4412 4.60787C18.1557 4.19737 19.0037 4.08671 19.7997 4.30012C20.5956 4.51353 21.2745 5.03363 21.6878 5.74654L22.4147 7.00654C22.4328 7.03866 22.4492 7.07177 22.4637 7.10571C22.8356 7.81457 22.9207 8.63933 22.7014 9.40922C22.482 10.1791 21.975 10.8352 21.2853 11.2415C21.0798 11.3585 20.909 11.528 20.7907 11.7327C20.6104 12.0444 20.5601 12.4144 20.6507 12.7629C20.744 13.1129 20.9668 13.4045 21.2807 13.5842C21.9935 13.9966 22.5141 14.6744 22.7285 15.4695C22.9387 16.2659 22.8255 17.113 22.4135 17.8262L21.6377 19.1177C21.2222 19.8243 20.5446 20.3383 19.7521 20.5478C18.9597 20.7574 18.1165 20.6455 17.4062 20.2365C17.2074 20.1236 16.9837 20.0615 16.7552 20.0557H16.7482C16.411 20.0557 16.0645 20.1992 15.8125 20.45C15.6865 20.5753 15.5869 20.7244 15.5194 20.8887C15.4519 21.053 15.4178 21.2291 15.4193 21.4067C15.4153 22.229 15.0863 23.0164 14.5041 23.5971C13.9219 24.1778 13.1336 24.5047 12.3113 24.5065H10.8495C10.0256 24.5059 9.23559 24.1784 8.65289 23.596C8.0702 23.0135 7.74241 22.2236 7.74149 21.3997C7.73819 21.1811 7.67787 20.9672 7.56649 20.779C7.47841 20.6236 7.36036 20.4871 7.21917 20.3776C7.07799 20.268 6.91648 20.1876 6.74399 20.1409C6.40013 20.0506 6.03456 20.0997 5.72665 20.2774C5.00063 20.6824 4.14414 20.7847 3.34315 20.562C2.54978 20.3338 1.8788 19.8012 1.47649 19.0804L0.747319 17.8239C0.337998 17.1127 0.227267 16.2682 0.439384 15.4755C0.651502 14.6828 1.16917 14.0065 1.87899 13.5947C2.29899 13.3532 2.55799 12.9029 2.55799 12.4199C2.55799 11.9369 2.29782 11.4865 1.87899 11.2439C1.16932 10.8299 0.652099 10.1521 0.440107 9.35837C0.228116 8.56461 0.338546 7.71922 0.747319 7.00654L1.53715 5.70687C2.37832 4.24504 4.27999 3.72821 5.76282 4.57987C5.96465 4.70121 6.18399 4.76071 6.40682 4.76304C7.13365 4.76304 7.74149 4.16454 7.75315 3.42604C7.75183 3.02094 7.83073 2.61959 7.98532 2.24514C8.1399 1.87069 8.36711 1.53056 8.65382 1.24437C8.94109 0.954398 9.28313 0.724415 9.66007 0.567793C10.037 0.411171 10.4413 0.331034 10.8495 0.332041H12.3113ZM12.3113 2.08204H10.8495C10.672 2.08188 10.4963 2.11683 10.3325 2.18487C10.1686 2.25292 10.0198 2.35271 9.89466 2.4785C9.76951 2.60429 9.6705 2.7536 9.6033 2.91782C9.53611 3.08205 9.50208 3.25794 9.50315 3.43537C9.49125 4.25296 9.15919 5.03327 8.57829 5.60872C7.99739 6.18417 7.21398 6.50885 6.39632 6.51304C5.86264 6.50911 5.33961 6.36335 4.88082 6.09071C4.56895 5.91707 4.20128 5.87308 3.85725 5.96826C3.51322 6.06344 3.22044 6.29013 3.04215 6.59937L2.25232 7.89904C1.89065 8.52671 2.11232 9.35621 2.75632 9.73071C3.22738 10.0046 3.6185 10.397 3.89073 10.8691C4.16297 11.3411 4.30682 11.8762 4.30799 12.421C4.30799 13.5259 3.71299 14.556 2.75399 15.1114C2.44591 15.2906 2.22137 15.5846 2.12954 15.9289C2.0377 16.2733 2.08605 16.6401 2.26399 16.9489L2.99899 18.2182C3.18099 18.5449 3.47849 18.7817 3.82265 18.8797C4.16565 18.9754 4.54365 18.9345 4.85865 18.7584C5.32754 18.4866 5.86017 18.344 6.40215 18.3454C6.94544 18.3443 7.47929 18.4874 7.94924 18.76C8.4192 19.0326 8.80846 19.4249 9.07732 19.897C9.34099 20.3415 9.48682 20.8607 9.49149 21.3904C9.49149 22.1487 10.1005 22.7565 10.8495 22.7565H12.3113C13.058 22.7565 13.6658 22.1522 13.6693 21.4067C13.6669 20.999 13.7459 20.595 13.9015 20.2181C14.0572 19.8413 14.2864 19.4994 14.5758 19.2122C15.1568 18.6312 15.9688 18.2824 16.7808 18.3057C17.3128 18.3174 17.825 18.462 18.2765 18.7187C18.5882 18.8973 18.9579 18.9458 19.3051 18.8536C19.6524 18.7614 19.9493 18.5361 20.1315 18.2264L20.9062 16.9349C21.0818 16.6254 21.1281 16.2591 21.035 15.9156C20.9419 15.5722 20.717 15.2793 20.4092 15.1009C20.0544 14.8982 19.7435 14.6269 19.4947 14.3028C19.246 13.9787 19.0642 13.6083 18.9602 13.2132C18.7504 12.4175 18.8641 11.5711 19.2763 10.8589C19.5447 10.3922 19.9378 9.99904 20.4092 9.72721C20.715 9.54503 20.9373 9.25021 21.0282 8.90602C21.1192 8.56183 21.0716 8.1957 20.8957 7.88621C20.8802 7.86073 20.8666 7.83422 20.8548 7.80687L20.1712 6.62154C19.9916 6.31036 19.6962 6.08291 19.3495 5.9889C19.0028 5.8949 18.6329 5.94199 18.3208 6.11987C17.9718 6.32657 17.585 6.46161 17.1832 6.5171C16.7814 6.57258 16.3725 6.54741 15.9805 6.44304C15.5858 6.342 15.2152 6.16339 14.8903 5.91761C14.5654 5.67184 14.2927 5.36382 14.0882 5.01154C13.818 4.55742 13.6734 4.03961 13.6693 3.51121C13.677 3.32436 13.647 3.13787 13.5811 2.96288C13.5151 2.78789 13.4146 2.62798 13.2855 2.49271C13.1586 2.36302 13.007 2.26 12.8397 2.18968C12.6724 2.11936 12.4928 2.08316 12.3113 2.08321V2.08204ZM11.5857 8.46954C12.6332 8.47078 13.6374 8.88753 14.378 9.62834C15.1186 10.3692 15.5351 11.3735 15.536 12.421C15.5348 13.4682 15.1181 14.4722 14.3775 15.2126C13.6369 15.9529 12.6329 16.3693 11.5857 16.3702C10.5384 16.3693 9.53438 15.9529 8.79378 15.2126C8.05318 14.4722 7.63655 13.4682 7.63532 12.421C7.63625 11.3735 8.0527 10.3692 8.7933 9.62834C9.53389 8.88753 10.5381 8.47078 11.5857 8.46954ZM11.5857 10.2195C11.1502 10.2193 10.7244 10.3482 10.3622 10.59C10.0001 10.8318 9.71771 11.1755 9.5509 11.5778C9.3841 11.98 9.34033 12.4227 9.42514 12.8498C9.50996 13.2769 9.71954 13.6693 10.0274 13.9773C10.3352 14.2853 10.7275 14.4951 11.1546 14.5802C11.5816 14.6652 12.0244 14.6217 12.4267 14.4551C12.829 14.2885 13.1729 14.0063 13.4149 13.6442C13.6568 13.2822 13.786 12.8565 13.786 12.421C13.786 11.2077 12.799 10.2195 11.5857 10.2195Z" fill="#0066FF"/>
</svg>
